<svg xmlns="http://www.w3.org/2000/svg" viewBox="0 0 267.86 121.02"><defs><style>.cls-1{fill:#fff;}</style></defs><g id="Layer_2" data-name="Layer 2"><g id="Layer_1-2" data-name="Layer 1"><path class="cls-1" d="M147,2.14a25.25,25.25,0,0,1,8.43,4.37,22.63,22.63,0,0,1,5.84,6.79,25.24,25.24,0,0,1,2.83,8.49,23.58,23.58,0,0,1-.59,9.51,31,31,0,0,1-7.77,14,36,36,0,0,1-6.15,5,53.61,53.61,0,0,1-7,3.89,67.87,67.87,0,0,1-7.85,2.93q-4.32,1.34-8.1,2.21T118.34,61a283.59,283.59,0,0,1,2,30.09.83.83,0,0,1-.87.93,1.07,1.07,0,0,1-1.18-.88.49.49,0,0,1,0-.25,270.36,270.36,0,0,0-1.91-29.53c-1.88.31-5.54.88-11,1.7a1,1,0,0,1-1-.41,1,1,0,0,1-.16-1A.94.94,0,0,1,105,61q5.87-.87,11-1.8-.51-4.22-1-7.56-1.48-9.26-3.6-18.51c-.13-.55-.41-1.47-.82-2.75s-.74-2.37-1-3.24a10.52,10.52,0,0,1-.39-3,5.21,5.21,0,0,1,.67-2.75A1,1,0,0,1,111,21a2.45,2.45,0,0,1,1,.62,2.62,2.62,0,0,1,.33,1.13,1,1,0,0,1-.1.64.76.76,0,0,1-.46.44l-.23.08a.3.3,0,0,0-.18.07h-.16q.87,3.19,2.45,11t2.77,14.3c.81,4.35,1.26,7,1.37,8,0,.17,0,.35.07.54a5,5,0,0,0,.08.56,3.38,3.38,0,0,1,0,.49,151.88,151.88,0,0,0,20.32-5.14,40.51,40.51,0,0,0,7.94-3.7,37.75,37.75,0,0,0,7.05-5.51,34.54,34.54,0,0,0,5.4-6.86,25.65,25.65,0,0,0,3.06-8.1,23.58,23.58,0,0,0,0-8.9,20,20,0,0,0-2.7-7.18,18.68,18.68,0,0,0-4.68-5.16,26.36,26.36,0,0,0-6.22-3.37,34.77,34.77,0,0,0-7.15-1.93,59.33,59.33,0,0,0-7.67-.67,65.21,65.21,0,0,0-7.53.21q-3.5.3-7,.92Q104,5.89,95.09,12a26.1,26.1,0,0,0-5.27,5,23.19,23.19,0,0,0-3.55,6.15A14.46,14.46,0,0,0,85.42,30a14,14,0,0,0,2.73,6.74,1,1,0,0,1,.1,1,1,1,0,0,1-.77.62,1,1,0,0,1-.92-.33,17,17,0,0,1-3.35-8.13,14.78,14.78,0,0,1,1.11-7.74,26.19,26.19,0,0,1,4.47-6.84,34.11,34.11,0,0,1,6.48-5.66,41.7,41.7,0,0,1,7.38-3.93A84.42,84.42,0,0,1,117,1.44,72.22,72.22,0,0,1,132.25,0,52.41,52.41,0,0,1,147,2.14Z"/><path class="cls-1" d="M157.38,50.43a1,1,0,0,1,.82-.62,1.13,1.13,0,0,1,1,.36,1,1,0,0,1,.18,1,34.38,34.38,0,0,0-2.52,13.37.77.77,0,0,1-.87.88,1,1,0,0,1-1.14-.82,1.18,1.18,0,0,1-.05-.31A36.21,36.21,0,0,1,157.38,50.43Zm3.44-5.91a1,1,0,0,1-.51,1.39l-3.65,2.16a.85.85,0,0,1-.78,0,1,1,0,0,1-.56-.54,1,1,0,0,1,.51-1.39L159.48,44a.85.85,0,0,1,.78,0A1,1,0,0,1,160.82,44.52Z"/><path class="cls-1" d="M180.26,57.89a.75.75,0,0,1,1,0,1.18,1.18,0,0,1,.44,1,1,1,0,0,1-.57.9q-.62.32-1.59.75c-.65.29-1.43.61-2.34,1s-1.86.69-2.85,1-2,.56-3,.8a18,18,0,0,1-3,.44,11.38,11.38,0,0,1-2.54-.13,3.31,3.31,0,0,1-1.83-.93,3,3,0,0,1-.79-1.9,4.28,4.28,0,0,1,.17-1.52,10,10,0,0,1,.52-1.39,11.79,11.79,0,0,1,.92-1.49c.43-.6.75-1,1-1.28s.57-.69,1.1-1.29.83-.95.9-1a.59.59,0,0,0,.21-.26c.27-.31.49-.56.64-.75s.38-.47.67-.85a5.91,5.91,0,0,0,.62-.92c.12-.24.25-.53.41-.88a1.39,1.39,0,0,0,.15-.84,2,2,0,0,0-.28-.67,1.32,1.32,0,0,0-.75-.52,5.71,5.71,0,0,0-1.36-.23,8.55,8.55,0,0,0-3.42.59,6.53,6.53,0,0,0-2.85,1.78,1,1,0,0,1-1,.33,1,1,0,0,1-.82-.59,1,1,0,0,1,.15-1,9.64,9.64,0,0,1,2.85-1.85A20.2,20.2,0,0,1,167,44.7a6.26,6.26,0,0,1,3.81.18,2.81,2.81,0,0,1,1.85,2.62,5.47,5.47,0,0,1-.64,3.11,16.9,16.9,0,0,1-2.55,3.4c-1.17,1.25-1.89,2.06-2.16,2.44a1.1,1.1,0,0,0-.15.2l-.59.85a7.25,7.25,0,0,0-.54,1,3.22,3.22,0,0,0-.36,1.06,1.84,1.84,0,0,0,.15,1,2.21,2.21,0,0,0,.77.93q.61.36,5.09-.42A28.51,28.51,0,0,0,180.26,57.89Z"/><path class="cls-1" d="M199.08,57.89a.77.77,0,0,1,1,0,1.17,1.17,0,0,1,.43,1,1,1,0,0,1-.56.9c-.41.21-.95.46-1.6.75s-1.43.61-2.34,1-1.86.69-2.85,1-2,.56-3,.8a17.86,17.86,0,0,1-3,.44,11.44,11.44,0,0,1-2.55-.13,3.28,3.28,0,0,1-1.82-.93,3,3,0,0,1-.8-1.9,4.08,4.08,0,0,1,.18-1.52,8.86,8.86,0,0,1,.51-1.39,11,11,0,0,1,.93-1.49c.43-.6.74-1,.95-1.28s.57-.69,1.11-1.29.83-.95.9-1a.66.66,0,0,0,.2-.26c.28-.31.49-.56.64-.75s.38-.47.67-.85a5.91,5.91,0,0,0,.62-.92c.12-.24.26-.53.41-.88a1.34,1.34,0,0,0,.16-.84,2.31,2.31,0,0,0-.29-.67,1.26,1.26,0,0,0-.74-.52,5.8,5.8,0,0,0-1.37-.23,8.55,8.55,0,0,0-3.42.59,6.65,6.65,0,0,0-2.85,1.78,1,1,0,0,1-1,.33,1,1,0,0,1-.82-.59,1,1,0,0,1,.15-1,9.86,9.86,0,0,1,2.86-1.85,20,20,0,0,1,4.09-1.41,6.23,6.23,0,0,1,3.8.18,2.81,2.81,0,0,1,1.85,2.62,5.39,5.39,0,0,1-.64,3.11,16.52,16.52,0,0,1-2.55,3.4c-1.16,1.25-1.88,2.06-2.16,2.44a2,2,0,0,0-.15.2l-.59.85a7.25,7.25,0,0,0-.54,1,3.22,3.22,0,0,0-.36,1.06,2,2,0,0,0,.15,1,2.29,2.29,0,0,0,.77.93c.42.24,2.11.1,5.1-.42A28.46,28.46,0,0,0,199.08,57.89Z"/><path class="cls-1" d="M227.78,51.61a.78.78,0,0,1,.95-.23,1,1,0,0,1,.65.77,1.28,1.28,0,0,1-.31,1.06,28,28,0,0,1-2.5,2.18q-1.51,1.22-3.49,2.55a24.41,24.41,0,0,1-4,2.19,16.85,16.85,0,0,1-3.76,1.15,4.11,4.11,0,0,1-3.08-.54,4.28,4.28,0,0,1-1.73-3c-.27.2-.61.47-1,.79l-1.05.88c-.31.25-.67.53-1.08.82s-.79.55-1.13.77a8.81,8.81,0,0,1-1.14.62,6,6,0,0,1-1.21.41,6.09,6.09,0,0,1-1.23.15,3.38,3.38,0,0,1-1.26-.18,3.05,3.05,0,0,1-1.83-1.23,3.53,3.53,0,0,1-.64-2,8.76,8.76,0,0,1,.31-2.26,8.35,8.35,0,0,1,2.26-3.8,9.47,9.47,0,0,1,3.71-2.27A11.2,11.2,0,0,1,209.6,50a9.6,9.6,0,0,1,4.19,1.32.77.77,0,0,1,.26,1.33,1,1,0,0,1-1.44.31,7.36,7.36,0,0,0-8,.16,10.9,10.9,0,0,0-1.52,1.13,9.35,9.35,0,0,0-1.31,1.46,2.67,2.67,0,0,0-.59,1.65,3,3,0,0,0,.69,1.67,2.21,2.21,0,0,0,1.65.77,3.69,3.69,0,0,0,1.9-.59,17.11,17.11,0,0,0,1.88-1.31c.6-.48,1.25-1,1.95-1.6A20.54,20.54,0,0,1,211,55a.75.75,0,0,1,1,.1,1.28,1.28,0,0,1,.47,1q.09,5.76,7.76,1.23a41.67,41.67,0,0,0,7.41-5.5A.68.68,0,0,1,227.78,51.61Z"/><path class="cls-1" d="M129.82,81.18a.91.91,0,0,1,1.05.1,1.13,1.13,0,0,1,.44.94.92.92,0,0,1-.57.84,216.48,216.48,0,0,0-19.87,9.56q5.35,2.49,5.52,6.5a8.17,8.17,0,0,1-.91,3.77,16.31,16.31,0,0,1-2.38,3.64,35.52,35.52,0,0,1-3.36,3.38c-1.29,1.15-2.45,2.09-3.47,2.84s-2.08,1.48-3.16,2.19q-11.3,7.34-18.43,5.82a5.43,5.43,0,0,1-2.91-1.36A3.59,3.59,0,0,1,80.68,117a8.4,8.4,0,0,1,.31-2.78,15,15,0,0,1,1.24-3,19,19,0,0,1,1.85-2.9,20.56,20.56,0,0,1,2.48-2.67q1.41-1.26,2.64-2.28c.83-.67,1.84-1.4,3-2.18s2.2-1.42,3-1.91,1.86-1.11,3.19-1.88,2.33-1.35,3-1.75q1.88-1.17,4.41-2.63c-.9-.29-1.82-.55-2.75-.81s-1.93-.48-3-.69L97.25,91c-.8-.15-1.82-.3-3.08-.46s-2.19-.27-2.81-.36-1.65-.19-3.09-.31l-2.84-.23-3.07-.26c-1.6-.13-2.53-.19-2.81-.19-3.54-.28-6-.49-7.32-.61s-3.44-.35-6.29-.68-5.38-.75-7.57-1.22-4.32-1-6.4-1.72q-9.64-3.09-8.38-9.76a5.92,5.92,0,0,1,.58-1.72c.29-.59.55-1.07.78-1.46a9.67,9.67,0,0,1,1.22-1.49c.59-.62,1-1,1.18-1.22S48,68.7,48.79,68s1.18-1,1.28-1.12a86.54,86.54,0,0,1,10.74-8.35A93.39,93.39,0,0,1,84.75,47a15.61,15.61,0,0,1,1.5-.53l1.87-.59,1.94-.59a15.88,15.88,0,0,1,2.12-.49c.6-.08,1.29-.16,2.08-.23a7.58,7.58,0,0,1,2,0,11,11,0,0,1,1.79.47,4.44,4.44,0,0,1,1.62,1,5.69,5.69,0,0,1,1.2,1.56,5.49,5.49,0,0,1,.41,1.87,4.07,4.07,0,0,1-.52,1.94,13.42,13.42,0,0,1-1.16,1.88,15.22,15.22,0,0,1-1.52,1.74c-.61.6-1.14,1.1-1.61,1.51a17.41,17.41,0,0,1-1.46,1.14,1,1,0,0,1-1.08.13,1,1,0,0,1-.66-.75,1,1,0,0,1,.36-.94c2.52-1.84,4.08-3.45,4.66-4.8a3.6,3.6,0,0,0,.24-2.6,2.16,2.16,0,0,0-1.47-1.38,12.31,12.31,0,0,0-2.49-.45,8.29,8.29,0,0,0-2.72.22,73.11,73.11,0,0,0-15.81,5.35A87.11,87.11,0,0,0,48.33,71.38q-7.77,8,6.38,12.18a98.37,98.37,0,0,0,17.83,3q2.37.21,7,.55c3.09.22,5.59.43,7.48.6s4.16.44,6.81.8,5.06.79,7.23,1.29c3.56.76,6,1.37,7.3,1.81A232.73,232.73,0,0,1,129.82,81.18ZM109,94.26l-.31-.14-.32-.15q-4.92,2.81-9.32,5.59c-.44.28-1.39.87-2.86,1.74s-2.58,1.57-3.32,2.07-1.68,1.17-2.83,2a22.31,22.31,0,0,0-2.92,2.52A20.12,20.12,0,0,0,85,110.57,16.06,16.06,0,0,0,83.71,113a9.68,9.68,0,0,0-.63,2.43,2.69,2.69,0,0,0,.62,2.15,4.3,4.3,0,0,0,2.43,1.27A3.08,3.08,0,0,0,87,119l.9,0a5.11,5.11,0,0,0,1-.15l.95-.21a8.48,8.48,0,0,0,1-.28c.46-.15.76-.25.89-.31l.92-.33c.48-.16.73-.25.77-.25a43.72,43.72,0,0,0,9.89-5.6q8.79-6.26,10-11.06C114.14,97.9,112.68,95.75,109,94.26Z"/><path class="cls-1" d="M157.12,78.68a.78.78,0,0,1,.95-.26,1,1,0,0,1,.66.75,1.29,1.29,0,0,1-.28,1.07A32.6,32.6,0,0,1,156,82.48q-1.48,1.26-3.43,2.64a24.74,24.74,0,0,1-3.9,2.29A17.21,17.21,0,0,1,145,88.66a4.14,4.14,0,0,1-3.09-.46,4.27,4.27,0,0,1-1.8-2.91c-.27.21-.6.48-1,.82l-1,.9c-.3.27-.65.55-1,.85s-.78.57-1.12.8a8.32,8.32,0,0,1-1.11.65,6.27,6.27,0,0,1-1.2.44,6.87,6.87,0,0,1-1.23.18,3.57,3.57,0,0,1-1.26-.14,3.07,3.07,0,0,1-1.86-1.19,3.43,3.43,0,0,1-.69-2,8.68,8.68,0,0,1,.25-2.27,8.29,8.29,0,0,1,2.16-3.86,9.49,9.49,0,0,1,3.64-2.36,11.18,11.18,0,0,1,4.34-.6,9.46,9.46,0,0,1,4.22,1.21c.63.32.72.77.29,1.33a1,1,0,0,1-1.43.34,7.39,7.39,0,0,0-8,.36,11.55,11.55,0,0,0-1.48,1.17,8.69,8.69,0,0,0-1.28,1.5,2.7,2.7,0,0,0-.55,1.66,3,3,0,0,0,.74,1.65,2.19,2.19,0,0,0,1.67.73,3.71,3.71,0,0,0,1.88-.64,17.23,17.23,0,0,0,1.85-1.36l1.91-1.64c.69-.6,1.23-1,1.64-1.33a.76.76,0,0,1,1,.08,1.27,1.27,0,0,1,.48,1q.25,5.76,7.8,1a41.59,41.59,0,0,0,7.26-5.69A.51.51,0,0,1,157.12,78.68Z"/><path class="cls-1" d="M163.31,93.28a2.68,2.68,0,0,1-2.06,0A3.38,3.38,0,0,1,159.7,92a11.83,11.83,0,0,1-1.14-2.31,15.85,15.85,0,0,1-.79-2.94c-.18-1-.35-2.1-.5-3.18a28.22,28.22,0,0,1-.25-3q0-1.44-.12-2.52a12.25,12.25,0,0,1,0-1.64.78.78,0,0,1,.49-.86,1.15,1.15,0,0,1,1,.1,1,1,0,0,1,.54.91,46.17,46.17,0,0,0,1.2,10.62,5.22,5.22,0,0,1,.17.66c.08.38.14.66.2.85s.15.46.28.81a3,3,0,0,0,.41.82,2.63,2.63,0,0,0,.5.5,1,1,0,0,0,.67.21,1.78,1.78,0,0,0,.84-.28,1.48,1.48,0,0,0,.5-.63,6.39,6.39,0,0,0,.39-.91c.09-.29.21-.65.33-1.06l.24-.78a107.65,107.65,0,0,0,2.82-10.41c1.05-4.56,1.83-7.66,2.33-9.32a.79.79,0,0,1,.71-.69,1.16,1.16,0,0,1,1,.36.91.91,0,0,1,.23,1c-.44,1.59-.9,3.4-1.4,5.44s-1,4.09-1.49,6.18-1,3.9-1.4,5.41c-.07.18-.18.6-.36,1.27s-.31,1.21-.42,1.61-.28.92-.52,1.56a11.05,11.05,0,0,1-.73,1.59,6.34,6.34,0,0,1-.93,1.18A3.18,3.18,0,0,1,163.31,93.28Z"/><path class="cls-1" d="M199.23,77.6a.77.77,0,0,1,.94-.26,1,1,0,0,1,.67.75,1.32,1.32,0,0,1-.28,1.07,32.49,32.49,0,0,1-2.44,2.25c-1,.83-2.14,1.71-3.43,2.63a24.38,24.38,0,0,1-3.91,2.29,17,17,0,0,1-3.72,1.25,4.17,4.17,0,0,1-3.1-.46,4.27,4.27,0,0,1-1.8-2.91c-.27.21-.59.48-1,.82l-1,.9a13.51,13.51,0,0,1-1.06.85c-.4.3-.77.57-1.11.8a9.82,9.82,0,0,1-1.11.65,6.27,6.27,0,0,1-1.2.44,6.87,6.87,0,0,1-1.23.19,3.91,3.91,0,0,1-1.27-.15,3.07,3.07,0,0,1-1.85-1.19,3.44,3.44,0,0,1-.7-2,9.12,9.12,0,0,1,.25-2.27A8.4,8.4,0,0,1,173,79.4,9.49,9.49,0,0,1,176.68,77a11.13,11.13,0,0,1,4.33-.6,9.47,9.47,0,0,1,4.23,1.21.78.78,0,0,1,.29,1.33,1,1,0,0,1-1.43.34,7.39,7.39,0,0,0-8,.36,12.4,12.4,0,0,0-1.49,1.17,9.11,9.11,0,0,0-1.27,1.5,2.64,2.64,0,0,0-.55,1.66,3,3,0,0,0,.74,1.65,2.19,2.19,0,0,0,1.66.73,3.71,3.71,0,0,0,1.89-.64A16.17,16.17,0,0,0,179,84.39c.59-.49,1.23-1,1.92-1.64a20.35,20.35,0,0,1,1.63-1.33.75.75,0,0,1,1,.08,1.25,1.25,0,0,1,.49,1q.25,5.76,7.8,1A41.59,41.59,0,0,0,199,77.81.45.45,0,0,1,199.23,77.6Z"/><path class="cls-1" d="M233.57,76.71a1.12,1.12,0,0,1,1.83.19.94.94,0,0,1-.1,1,37,37,0,0,1-3,3.36,34.14,34.14,0,0,1-4,3.48,24.82,24.82,0,0,1-4.56,2.74,9.51,9.51,0,0,1-4.61.84A6.34,6.34,0,0,1,215,86.4c-.63-.67-1.49-1.66-2.57-3s-1.87-2.23-2.36-2.77a6.39,6.39,0,0,0-.89-.72,2.94,2.94,0,0,0-.73-.37.94.94,0,0,0-.67.07,6,6,0,0,0-.58.3,2.51,2.51,0,0,0-.58.55,5.88,5.88,0,0,0-.5.68q-.15.27-.54.87l-.55.81c-.16.28-.59,1.15-1.29,2.63a23.82,23.82,0,0,1-2.17,3.76A3.73,3.73,0,0,1,199.47,91a1,1,0,0,1-1-.33,4.2,4.2,0,0,1-.57-1.09,4.4,4.4,0,0,1-.16-1.44c0-.56,0-1,.07-1.31s.1-.81.22-1.5.19-1.08.22-1.19c.18-1.31.52-3.17,1-5.61s.83-3.88.92-4.37a1.17,1.17,0,0,1,1.73-.71.76.76,0,0,1,.33.92q-.22,1.14-.78,3.75c-.36,1.74-.64,3.08-.82,4q-.54,3-.66,4.23c0,.1,0,.26,0,.46a14.57,14.57,0,0,1,1-1.67l1.32-1.88c.46-.67.79-1.17,1-1.52q.15-.21.42-.63l.47-.73c.13-.21.29-.45.47-.71s.35-.5.52-.71.35-.42.55-.63a6.87,6.87,0,0,1,.63-.58,4.16,4.16,0,0,1,.63-.43,6.07,6.07,0,0,1,1.44-.24,2.45,2.45,0,0,1,1.34.43,9,9,0,0,1,1.29.94,15.05,15.05,0,0,1,1.21,1.26,15.88,15.88,0,0,1,1.12,1.38c.3.43.62.87,1,1.34a12.3,12.3,0,0,0,.88,1.11,5.21,5.21,0,0,0,7.4,1.82A25.62,25.62,0,0,0,233.57,76.71Z"/><path class="cls-1" d="M266.66,60.9a1,1,0,0,1,1,.38,1.07,1.07,0,0,1,.18,1,.92.92,0,0,1-.78.66q-14.25,2.11-29.5,5.08a238.37,238.37,0,0,0-5,42.73.88.88,0,0,1-.57.84,1.11,1.11,0,0,1-1-.08,1,1,0,0,1-.51-.91,244.37,244.37,0,0,1,4.94-42.16Q227.58,70,221.5,71.26a1.08,1.08,0,0,1-.65-.08.78.78,0,0,1-.39-.43,1.48,1.48,0,0,1-.12-.59.78.78,0,0,1,.21-.57,1.26,1.26,0,0,1,.59-.38q6.35-1.33,14.69-3,1.28-6,2.64-11.13a.85.85,0,0,1,.73-.68,1.16,1.16,0,0,1,1.25,1.41q-1.19,4.35-2.42,10Q252.82,63,266.66,60.9Z"/><path class="cls-1" d="M68.33,19.29a.85.85,0,0,1,1-.15,1.07,1.07,0,0,1,.64.77,1.05,1.05,0,0,1-.36,1A92.23,92.23,0,0,0,59.07,31,107.46,107.46,0,0,0,50.3,42.26a114.23,114.23,0,0,0-7.22,12.42q-3.4,6.74-5.92,13T32.33,81.45Q30,88.94,28.39,95.31T25.08,109.4a1.28,1.28,0,0,1-.54.77.78.78,0,0,1-.9,0A3.1,3.1,0,0,1,22.37,109a9.93,9.93,0,0,1-.87-1.72c-.19-.52-.41-1.22-.67-2.11s-.42-1.44-.49-1.64q-1.9-5.56-5.19-16.93Q10.26,69.7,3.58,44.24a.83.83,0,0,1,.28-1,1.07,1.07,0,0,1,1-.16,1,1,0,0,1,.74.8q5.71,21.81,10.19,37.44Q19,92.79,21.17,99.32c.06.24.23.88.49,1.93s.54,2.11.87,3.19a18.09,18.09,0,0,0,.95,2.59q1.69-7.61,3.37-14t4-13.75q2.36-7.38,4.88-13.63t5.94-12.91A113.19,113.19,0,0,1,49,40.46a106.94,106.94,0,0,1,8.8-11.14A90.48,90.48,0,0,1,68.33,19.29Z"/><path class="cls-1" d="M62.15,5.49a.76.76,0,0,1,.94.27,1.13,1.13,0,0,1,.14,1,1.06,1.06,0,0,1-.82.7C45.63,7,24.81,13.69,1.4,30.14a.88.88,0,0,1-1,0,1.18,1.18,0,0,1,.17-1.88C14.72,15.69,44.11,4.13,62.15,5.49Z"/><path class="cls-1" d="M53.43,21.19a.76.76,0,0,1,.91.36,1.1,1.1,0,0,1,0,1,1.06,1.06,0,0,1-.88.63A164.9,164.9,0,0,0,10.92,35.56a.86.86,0,0,1-1-.14,1.06,1.06,0,0,1-.31-1,1.07,1.07,0,0,1,.64-.86A167.85,167.85,0,0,1,53.43,21.19Z"/><path class="cls-1" d="M17,37.42a4.79,4.79,0,0,1,3.4,3,6.24,6.24,0,0,1,.1,4.71,13.43,13.43,0,0,1-2.31,4.16,4.82,4.82,0,0,1-3.5,2,3,3,0,0,1-2.91-1.39,4.79,4.79,0,0,1-.54-3.45,17.09,17.09,0,0,1,4.17-8,1.48,1.48,0,0,1,.26-.21A1.06,1.06,0,0,1,17,37.42ZM13.64,48.89c.65.58,1.63.19,2.93-1.18A7.81,7.81,0,0,0,19,42.77a3,3,0,0,0-1.9-3.14,13.07,13.07,0,0,0-.88,1.11c-.31.43-.67.95-1.08,1.57a17.72,17.72,0,0,0-1.08,1.85A15.57,15.57,0,0,0,13.28,46a3.88,3.88,0,0,0-.23,1.67A1.85,1.85,0,0,0,13.64,48.89Z"/><path class="cls-1" d="M34.13,43a4.78,4.78,0,0,1,3.39,2.95,6.25,6.25,0,0,1,.11,4.71,13.6,13.6,0,0,1-2.32,4.17,4.82,4.82,0,0,1-3.5,2,2.93,2.93,0,0,1-2.9-1.39A4.76,4.76,0,0,1,28.37,52a17.19,17.19,0,0,1,4.16-8l.26-.2A1.06,1.06,0,0,1,34.13,43Zm-3.4,11.46c.65.59,1.63.19,2.94-1.18a7.82,7.82,0,0,0,2.41-4.94,2.94,2.94,0,0,0-1.9-3.13,11.13,11.13,0,0,0-.87,1.1c-.31.43-.67.95-1.08,1.57a15.52,15.52,0,0,0-1.08,1.85,15.68,15.68,0,0,0-.78,1.83,4.06,4.06,0,0,0-.23,1.67A1.82,1.82,0,0,0,30.73,54.42Z"/><path class="cls-1" d="M22.12,61.42a4.79,4.79,0,0,1,3.4,3,6.24,6.24,0,0,1,.1,4.71,13.32,13.32,0,0,1-2.31,4.16,4.82,4.82,0,0,1-3.5,2,3,3,0,0,1-2.91-1.39,4.79,4.79,0,0,1-.54-3.45,17.09,17.09,0,0,1,4.17-8,1.48,1.48,0,0,1,.26-.21A1.06,1.06,0,0,1,22.12,61.42ZM18.73,72.89c.65.58,1.63.19,2.93-1.18a7.81,7.81,0,0,0,2.42-4.94,3,3,0,0,0-1.9-3.14,13.07,13.07,0,0,0-.88,1.11c-.31.43-.67,1-1.08,1.57a17.72,17.72,0,0,0-1.08,1.85A15.57,15.57,0,0,0,18.37,70a3.88,3.88,0,0,0-.23,1.67A1.85,1.85,0,0,0,18.73,72.89Z"/></g></g></svg>