<svg xmlns="http://www.w3.org/2000/svg" viewBox="0 0 267.85 121.06"><defs><style>.cls-1{fill:#231f20;}</style></defs><g id="Layer_2" data-name="Layer 2"><g id="Layer_1-2" data-name="Layer 1"><path class="cls-1" d="M147,2.14a25.44,25.44,0,0,1,8.43,4.37,22.49,22.49,0,0,1,5.84,6.79,25.26,25.26,0,0,1,2.83,8.48,23.62,23.62,0,0,1-.59,9.52,30.9,30.9,0,0,1-7.77,14,36,36,0,0,1-6.15,5,53.61,53.61,0,0,1-7,3.89,67.87,67.87,0,0,1-7.85,2.93q-4.32,1.34-8.1,2.21T118.34,61a281,281,0,0,1,2,30.09.83.83,0,0,1-.87.93,1.07,1.07,0,0,1-1.18-.88.49.49,0,0,1,0-.25,270.36,270.36,0,0,0-1.91-29.53c-1.88.31-5.54.88-11,1.7a1,1,0,0,1-1-.41,1,1,0,0,1-.16-1A.94.94,0,0,1,105,61q5.87-.87,11-1.8-.51-4.22-1-7.56-1.48-9.26-3.6-18.51c-.13-.55-.41-1.47-.82-2.75s-.74-2.37-1-3.24a10.52,10.52,0,0,1-.39-3,5.21,5.21,0,0,1,.67-2.75A1,1,0,0,1,111,21a2.45,2.45,0,0,1,1,.62,2.57,2.57,0,0,1,.33,1.13,1,1,0,0,1-.1.64.76.76,0,0,1-.46.44l-.23.08a.39.39,0,0,0-.18.07h-.16q.87,3.19,2.45,11t2.77,14.3c.81,4.35,1.26,7,1.37,8,0,.17,0,.35.07.54a5,5,0,0,0,.08.56,3.38,3.38,0,0,1,0,.49,151.88,151.88,0,0,0,20.32-5.14,40.51,40.51,0,0,0,7.94-3.7,37.75,37.75,0,0,0,7.05-5.51,34.54,34.54,0,0,0,5.4-6.86,25.65,25.65,0,0,0,3.06-8.1,23.58,23.58,0,0,0,0-8.9,20,20,0,0,0-2.7-7.17,18.59,18.59,0,0,0-4.68-5.17,26.36,26.36,0,0,0-6.22-3.37,34.77,34.77,0,0,0-7.15-1.93,59.33,59.33,0,0,0-7.67-.67,65.21,65.21,0,0,0-7.53.21q-3.5.3-7,.92Q104,5.89,95.09,12a26.37,26.37,0,0,0-5.27,5,23.19,23.19,0,0,0-3.55,6.15A14.46,14.46,0,0,0,85.42,30a14,14,0,0,0,2.73,6.74,1,1,0,0,1,.1,1,1,1,0,0,1-.77.62,1,1,0,0,1-.92-.33,17,17,0,0,1-3.35-8.13,14.78,14.78,0,0,1,1.11-7.74,26.19,26.19,0,0,1,4.47-6.84,34.11,34.11,0,0,1,6.48-5.66,41.7,41.7,0,0,1,7.38-3.93A85.34,85.34,0,0,1,117,1.44,72.22,72.22,0,0,1,132.25,0,52.78,52.78,0,0,1,147,2.14Z"/><path class="cls-1" d="M157.38,50.43a1,1,0,0,1,.82-.62,1.13,1.13,0,0,1,1,.36,1,1,0,0,1,.18,1,34.38,34.38,0,0,0-2.52,13.37.77.77,0,0,1-.87.88,1,1,0,0,1-1.14-.82,1.18,1.18,0,0,1-.05-.31A36.21,36.21,0,0,1,157.38,50.43Zm3.44-5.91a1,1,0,0,1-.51,1.39l-3.65,2.16a.85.85,0,0,1-.78,0,1,1,0,0,1-.56-.54,1,1,0,0,1,.51-1.39L159.48,44a.85.85,0,0,1,.78,0A1,1,0,0,1,160.82,44.52Z"/><path class="cls-1" d="M180.26,57.89a.75.75,0,0,1,1,0,1.18,1.18,0,0,1,.44,1,1,1,0,0,1-.57.9q-.62.32-1.59.75c-.65.29-1.43.61-2.34,1s-1.86.69-2.85,1-2,.56-3,.8a18,18,0,0,1-3,.44,10.82,10.82,0,0,1-2.54-.13,3.31,3.31,0,0,1-1.83-.93,3,3,0,0,1-.79-1.9,4.08,4.08,0,0,1,.18-1.52,8.86,8.86,0,0,1,.51-1.39,11,11,0,0,1,.93-1.49c.42-.6.74-1,1-1.28s.57-.69,1.1-1.29.83-.95.9-1a.59.59,0,0,0,.21-.26c.27-.31.49-.56.64-.75s.38-.47.67-.85a5.91,5.91,0,0,0,.62-.92c.12-.24.25-.53.41-.88a1.39,1.39,0,0,0,.15-.84,2,2,0,0,0-.28-.67,1.32,1.32,0,0,0-.75-.52,5.71,5.71,0,0,0-1.36-.23,8.55,8.55,0,0,0-3.42.59,6.68,6.68,0,0,0-2.85,1.78,1,1,0,0,1-1,.33,1,1,0,0,1-.82-.59,1,1,0,0,1,.15-1,9.64,9.64,0,0,1,2.85-1.85A20.2,20.2,0,0,1,167,44.7a6.26,6.26,0,0,1,3.81.18,2.81,2.81,0,0,1,1.85,2.62,5.47,5.47,0,0,1-.64,3.11,16.9,16.9,0,0,1-2.55,3.4c-1.16,1.25-1.89,2.06-2.16,2.44a1.1,1.1,0,0,0-.15.2l-.59.85a7.25,7.25,0,0,0-.54,1,3.22,3.22,0,0,0-.36,1.06,1.84,1.84,0,0,0,.15,1,2.21,2.21,0,0,0,.77.93q.61.36,5.09-.42A28.51,28.51,0,0,0,180.26,57.89Z"/><path class="cls-1" d="M199.08,57.89a.77.77,0,0,1,1,0,1.17,1.17,0,0,1,.43,1,1,1,0,0,1-.56.9c-.41.21-.95.46-1.6.75s-1.43.61-2.34,1-1.86.69-2.85,1-2,.56-3,.8a17.86,17.86,0,0,1-3,.44,10.9,10.9,0,0,1-2.55-.13,3.28,3.28,0,0,1-1.82-.93,3,3,0,0,1-.8-1.9,4.08,4.08,0,0,1,.18-1.52,8.86,8.86,0,0,1,.51-1.39,11,11,0,0,1,.93-1.49c.43-.6.74-1,.95-1.28s.57-.69,1.11-1.29.83-.95.9-1a.66.66,0,0,0,.2-.26c.28-.31.49-.56.64-.75s.38-.47.67-.85a5.91,5.91,0,0,0,.62-.92c.12-.24.26-.53.41-.88a1.34,1.34,0,0,0,.16-.84,2.31,2.31,0,0,0-.29-.67,1.26,1.26,0,0,0-.74-.52,5.8,5.8,0,0,0-1.37-.23,8.55,8.55,0,0,0-3.42.59,6.75,6.75,0,0,0-2.85,1.78,1,1,0,0,1-1,.33,1,1,0,0,1-.82-.59,1,1,0,0,1,.15-1,9.86,9.86,0,0,1,2.86-1.85,20,20,0,0,1,4.09-1.41,6.23,6.23,0,0,1,3.8.18,2.81,2.81,0,0,1,1.85,2.62,5.39,5.39,0,0,1-.64,3.11,16.52,16.52,0,0,1-2.55,3.4c-1.16,1.25-1.88,2.06-2.16,2.44a2,2,0,0,0-.15.2l-.59.85a7.25,7.25,0,0,0-.54,1,3.22,3.22,0,0,0-.36,1.06,2,2,0,0,0,.15,1,2.29,2.29,0,0,0,.77.93c.42.24,2.11.1,5.1-.42A28.46,28.46,0,0,0,199.08,57.89Z"/><path class="cls-1" d="M227.78,51.61a.78.78,0,0,1,.95-.23,1,1,0,0,1,.65.77,1.28,1.28,0,0,1-.31,1.06,28,28,0,0,1-2.5,2.18q-1.51,1.22-3.49,2.55a24.41,24.41,0,0,1-4,2.19,16.85,16.85,0,0,1-3.76,1.15,4.11,4.11,0,0,1-3.08-.54,4.28,4.28,0,0,1-1.73-3c-.27.2-.61.47-1,.79l-1.05.88c-.31.25-.67.53-1.08.82s-.79.55-1.13.77a8.19,8.19,0,0,1-1.14.62,5.4,5.4,0,0,1-1.21.41,6.09,6.09,0,0,1-1.23.15,3.38,3.38,0,0,1-1.26-.18,3,3,0,0,1-1.82-1.23,3.46,3.46,0,0,1-.65-2,9.22,9.22,0,0,1,.31-2.26,8.35,8.35,0,0,1,2.26-3.8,9.47,9.47,0,0,1,3.71-2.27A11.2,11.2,0,0,1,209.6,50a9.56,9.56,0,0,1,4.19,1.32.77.77,0,0,1,.26,1.33,1,1,0,0,1-1.44.31,7.36,7.36,0,0,0-8,.16,11.53,11.53,0,0,0-1.52,1.13,9.35,9.35,0,0,0-1.31,1.46,2.67,2.67,0,0,0-.59,1.65,3,3,0,0,0,.69,1.67,2.21,2.21,0,0,0,1.65.77,3.6,3.6,0,0,0,1.9-.59,17.11,17.11,0,0,0,1.88-1.31c.6-.48,1.25-1,1.95-1.6A20.54,20.54,0,0,1,211,55a.75.75,0,0,1,1,.1,1.28,1.28,0,0,1,.47,1q.09,5.76,7.76,1.23a41.67,41.67,0,0,0,7.41-5.5A.68.68,0,0,1,227.78,51.61Z"/><path class="cls-1" d="M129.81,81.21a.94.94,0,0,1,1.06.1,1.15,1.15,0,0,1,.43.94.91.91,0,0,1-.57.84,217.74,217.74,0,0,0-19.87,9.56q5.37,2.49,5.52,6.5a8.18,8.18,0,0,1-.91,3.78,16.21,16.21,0,0,1-2.37,3.63,34.4,34.4,0,0,1-3.36,3.38c-1.3,1.15-2.45,2.1-3.48,2.85s-2.08,1.47-3.16,2.18q-11.28,7.35-18.42,5.83a5.43,5.43,0,0,1-2.92-1.37,3.59,3.59,0,0,1-1.09-2.36,8.43,8.43,0,0,1,.31-2.79,15,15,0,0,1,1.24-3,18.74,18.74,0,0,1,1.86-2.9,19.15,19.15,0,0,1,2.47-2.66c.94-.85,1.82-1.61,2.65-2.28a32.76,32.76,0,0,1,3-2.19c1.19-.79,2.19-1.42,3-1.9s1.86-1.11,3.2-1.89,2.32-1.35,3-1.74q1.88-1.19,4.41-2.64c-.9-.28-1.82-.55-2.75-.8s-1.93-.48-3-.7l-2.79-.54c-.79-.15-1.82-.31-3.07-.46l-2.82-.37c-.62-.09-1.65-.19-3.09-.31l-2.84-.23-3.07-.26c-1.59-.13-2.53-.19-2.8-.18l-7.33-.61c-1.34-.12-3.43-.35-6.29-.69s-5.38-.74-7.57-1.22S54,85.67,52,85q-9.65-3.11-8.37-9.77a5.83,5.83,0,0,1,.57-1.71c.29-.59.55-1.08.78-1.46a8.84,8.84,0,0,1,1.23-1.5c.58-.62,1-1,1.17-1.21s.68-.63,1.44-1.3S50,67,50.06,67A86.61,86.61,0,0,1,60.8,58.59,93.71,93.71,0,0,1,84.74,47.07c.24-.11.74-.28,1.51-.52L88.11,46l1.94-.59a13.26,13.26,0,0,1,2.12-.49c.6-.09,1.29-.17,2.08-.24a8.1,8.1,0,0,1,2.06,0,12.35,12.35,0,0,1,1.78.47,4.58,4.58,0,0,1,1.62,1,5.69,5.69,0,0,1,1.2,1.57,5.39,5.39,0,0,1,.41,1.86,4,4,0,0,1-.52,2,13.64,13.64,0,0,1-1.16,1.88,15.22,15.22,0,0,1-1.52,1.74c-.6.59-1.14,1.1-1.61,1.5s-1,.79-1.46,1.15A1,1,0,0,1,94,57.9a1,1,0,0,1-.66-.76,1,1,0,0,1,.36-.93c2.52-1.85,4.08-3.45,4.66-4.8a3.62,3.62,0,0,0,.24-2.61,2.19,2.19,0,0,0-1.47-1.38A12.34,12.34,0,0,0,94.62,47a8,8,0,0,0-2.72.23,73.6,73.6,0,0,0-15.82,5.34A87.54,87.54,0,0,0,48.32,71.41q-7.77,8,6.39,12.19a99,99,0,0,0,17.82,3l7,.54q4.65.34,7.48.6t6.81.81q4,.54,7.24,1.28c3.55.77,6,1.37,7.3,1.82A232.59,232.59,0,0,1,129.81,81.21ZM109,94.3l-.31-.15c-.14-.07-.25-.11-.31-.15q-4.92,2.81-9.33,5.59c-.44.29-1.39.87-2.86,1.75s-2.58,1.57-3.32,2.06-1.68,1.17-2.83,2a22.18,22.18,0,0,0-2.92,2.51A20.78,20.78,0,0,0,85,110.6a15.54,15.54,0,0,0-1.27,2.45,9.26,9.26,0,0,0-.64,2.44,2.68,2.68,0,0,0,.62,2.14,4.34,4.34,0,0,0,2.43,1.28A3.11,3.11,0,0,0,87,119l.9,0a5.32,5.32,0,0,0,1-.16l.94-.2a9,9,0,0,0,1-.29l.9-.3c.13-.06.44-.17.91-.33l.77-.26a43.51,43.51,0,0,0,9.89-5.6q8.79-6.24,10-11.06C114.14,97.94,112.67,95.78,109,94.3Z"/><path class="cls-1" d="M157.12,78.71a.76.76,0,0,1,.94-.26,1,1,0,0,1,.66.76,1.24,1.24,0,0,1-.28,1.06A28.86,28.86,0,0,1,156,82.52q-1.49,1.24-3.43,2.63a23.58,23.58,0,0,1-3.9,2.29A16.79,16.79,0,0,1,145,88.69a4.12,4.12,0,0,1-3.1-.46,4.27,4.27,0,0,1-1.8-2.91c-.27.21-.6.49-1,.82l-1,.9c-.31.27-.66.55-1.06.85s-.78.57-1.11.8a8,8,0,0,1-1.12.65,5.66,5.66,0,0,1-1.2.44,6.87,6.87,0,0,1-1.23.19,3.36,3.36,0,0,1-1.26-.15,3.05,3.05,0,0,1-1.86-1.19,3.47,3.47,0,0,1-.69-2,8.79,8.79,0,0,1,.25-2.28,8.29,8.29,0,0,1,2.16-3.86,9.5,9.5,0,0,1,3.65-2.35,11.13,11.13,0,0,1,4.33-.6,9.55,9.55,0,0,1,4.22,1.2.77.77,0,0,1,.29,1.33,1,1,0,0,1-1.43.34,7.38,7.38,0,0,0-8,.36A11.66,11.66,0,0,0,132.53,82a9.47,9.47,0,0,0-1.27,1.5,2.66,2.66,0,0,0-.55,1.66,3,3,0,0,0,.73,1.66,2.2,2.2,0,0,0,1.67.72,3.63,3.63,0,0,0,1.89-.63,20.3,20.3,0,0,0,1.84-1.36l1.91-1.65c.69-.6,1.23-1,1.64-1.33a.77.77,0,0,1,1,.08,1.3,1.3,0,0,1,.49,1q.24,5.74,7.79,1a41.59,41.59,0,0,0,7.26-5.69A.69.69,0,0,1,157.12,78.71Z"/><path class="cls-1" d="M163.3,93.32a2.66,2.66,0,0,1-2.05.05,3.42,3.42,0,0,1-1.56-1.32,12.23,12.23,0,0,1-1.14-2.32,15.54,15.54,0,0,1-.79-2.93c-.18-1-.35-2.1-.49-3.18a26.33,26.33,0,0,1-.26-3.06c0-1-.07-1.8-.12-2.51a14.37,14.37,0,0,1,0-1.65.8.8,0,0,1,.49-.86,1.15,1.15,0,0,1,1,.1,1,1,0,0,1,.54.91,46,46,0,0,0,1.2,10.62,3.78,3.78,0,0,1,.17.67c.08.37.15.65.2.84s.15.46.28.82a3.18,3.18,0,0,0,.41.81,3,3,0,0,0,.5.5,1.06,1.06,0,0,0,.67.22,1.85,1.85,0,0,0,.85-.28,1.72,1.72,0,0,0,.49-.63,5.3,5.3,0,0,0,.39-.91c.1-.3.21-.65.33-1.07l.24-.77A107.18,107.18,0,0,0,167.46,77q1.57-6.83,2.34-9.32a.79.79,0,0,1,.7-.69,1.16,1.16,0,0,1,1,.36.92.92,0,0,1,.24,1q-.66,2.39-1.41,5.44t-1.49,6.19c-.49,2.08-1,3.89-1.4,5.41-.07.17-.18.6-.35,1.27s-.32,1.21-.43,1.6-.28.92-.52,1.56a11.05,11.05,0,0,1-.73,1.59,6.37,6.37,0,0,1-.92,1.18A3.24,3.24,0,0,1,163.3,93.32Z"/><path class="cls-1" d="M199.22,77.63a.78.78,0,0,1,.95-.26,1,1,0,0,1,.66.76,1.27,1.27,0,0,1-.28,1.06,30.5,30.5,0,0,1-2.44,2.25q-1.49,1.25-3.43,2.63a24,24,0,0,1-3.9,2.29,16.69,16.69,0,0,1-3.73,1.25,4.13,4.13,0,0,1-3.1-.46,4.3,4.3,0,0,1-1.79-2.91c-.27.21-.6.49-1,.82l-1,.9c-.3.27-.65.55-1.06.86s-.77.56-1.11.8a9,9,0,0,1-1.11.64,5.66,5.66,0,0,1-1.2.44,6.87,6.87,0,0,1-1.23.19,3.36,3.36,0,0,1-1.26-.15,3,3,0,0,1-1.86-1.19,3.41,3.41,0,0,1-.7-2,9.62,9.62,0,0,1,.25-2.27A8.38,8.38,0,0,1,173,79.43a9.47,9.47,0,0,1,3.64-2.35,11.18,11.18,0,0,1,4.34-.6,9.58,9.58,0,0,1,4.22,1.2.77.77,0,0,1,.29,1.33,1,1,0,0,1-1.43.35,7.37,7.37,0,0,0-8,.35,11.55,11.55,0,0,0-1.48,1.17,9.51,9.51,0,0,0-1.28,1.5,2.72,2.72,0,0,0-.55,1.66,3,3,0,0,0,.74,1.66,2.23,2.23,0,0,0,1.67.73,3.71,3.71,0,0,0,1.88-.64A20.45,20.45,0,0,0,179,84.43l1.91-1.65c.69-.6,1.23-1,1.64-1.33a.77.77,0,0,1,1,.08,1.29,1.29,0,0,1,.48,1q.25,5.75,7.8,1A41.59,41.59,0,0,0,199,77.84.68.68,0,0,1,199.22,77.63Z"/><path class="cls-1" d="M233.57,76.75a1,1,0,0,1,1-.39,1.08,1.08,0,0,1,.84.57,1,1,0,0,1-.11,1,37,37,0,0,1-2.95,3.37,33.32,33.32,0,0,1-4,3.47,24.27,24.27,0,0,1-4.56,2.74,9.37,9.37,0,0,1-4.61.84A6.25,6.25,0,0,1,215,86.43q-1-1-2.58-3c-1.08-1.31-1.86-2.23-2.36-2.76a5.41,5.41,0,0,0-.89-.73,3.34,3.34,0,0,0-.73-.37.94.94,0,0,0-.67.07c-.23.11-.43.21-.58.3a2.6,2.6,0,0,0-.58.56,4.17,4.17,0,0,0-.49.68c-.1.17-.28.46-.55.86l-.54.81c-.17.28-.6,1.16-1.3,2.63a23.38,23.38,0,0,1-2.17,3.76A3.79,3.79,0,0,1,199.46,91a.94.94,0,0,1-1-.33,3.84,3.84,0,0,1-.57-1.1,4.1,4.1,0,0,1-.17-1.43c0-.57,0-1,.07-1.32s.1-.8.22-1.49.19-1.09.23-1.19q.26-2,1-5.61c.52-2.43.82-3.89.91-4.37a1.18,1.18,0,0,1,1.73-.72.79.79,0,0,1,.34.92l-.78,3.75c-.37,1.74-.64,3.08-.83,4-.36,2-.58,3.44-.66,4.24,0,.1,0,.25,0,.46a13.76,13.76,0,0,1,1-1.67l1.32-1.89c.46-.66.79-1.17,1-1.52q.15-.21.42-.63l.47-.73c.13-.21.29-.44.47-.7s.36-.5.52-.71.35-.42.55-.63a7,7,0,0,1,.63-.59,4,4,0,0,1,.63-.42,6.81,6.81,0,0,1,1.44-.25,2.59,2.59,0,0,1,1.35.43,8.68,8.68,0,0,1,1.28.95,16.45,16.45,0,0,1,1.22,1.25c.44.51.81,1,1.11,1.39l1,1.34a12.3,12.3,0,0,0,.88,1.11,7.13,7.13,0,0,0,3.31,2.51,7.28,7.28,0,0,0,4.09-.7A25.63,25.63,0,0,0,233.57,76.75Z"/><path class="cls-1" d="M266.65,60.93a1,1,0,0,1,1,.39,1,1,0,0,1,.18,1A.93.93,0,0,1,267,63q-14.25,2.12-29.5,5.08a239.07,239.07,0,0,0-5,42.72.87.87,0,0,1-.57.84,1.08,1.08,0,0,1-1-.08,1,1,0,0,1-.51-.91,245.48,245.48,0,0,1,4.94-42.16Q227.58,70,221.49,71.3a1,1,0,0,1-.64-.09.76.76,0,0,1-.4-.43,1.88,1.88,0,0,1-.12-.59.87.87,0,0,1,.22-.57,1.21,1.21,0,0,1,.58-.37q6.35-1.35,14.69-3c.85-4,1.74-7.75,2.64-11.13a.85.85,0,0,1,.73-.69,1.13,1.13,0,0,1,1,.36,1.07,1.07,0,0,1,.29,1.05q-1.17,4.35-2.42,10Q252.81,63,266.65,60.93Z"/><path class="cls-1" d="M68.33,19.29a.85.85,0,0,1,1-.15,1.07,1.07,0,0,1,.64.77,1.05,1.05,0,0,1-.36,1A92.23,92.23,0,0,0,59.07,31,107.46,107.46,0,0,0,50.3,42.26a114.23,114.23,0,0,0-7.22,12.42q-3.4,6.74-5.92,13T32.33,81.45Q30,88.94,28.39,95.31T25.08,109.4a1.26,1.26,0,0,1-.54.77.78.78,0,0,1-.9,0A3,3,0,0,1,22.38,109a9.37,9.37,0,0,1-.88-1.72c-.19-.51-.41-1.22-.67-2.11s-.42-1.44-.49-1.64q-1.9-5.56-5.19-16.93Q10.26,69.7,3.58,44.24a.83.83,0,0,1,.28-1,1.07,1.07,0,0,1,1-.16,1,1,0,0,1,.74.8q5.71,21.81,10.19,37.44Q19,92.79,21.17,99.32c.06.24.23.88.49,1.93s.54,2.11.87,3.19a19.4,19.4,0,0,0,.95,2.59q1.69-7.61,3.37-14t4-13.76q2.36-7.38,4.88-13.63t5.94-12.91A113.19,113.19,0,0,1,49,40.46a106.94,106.94,0,0,1,8.8-11.14A90.48,90.48,0,0,1,68.33,19.29Z"/><path class="cls-1" d="M62.15,5.49a.76.76,0,0,1,.94.27,1.13,1.13,0,0,1,.14,1,1.06,1.06,0,0,1-.82.7C45.63,7,24.81,13.69,1.4,30.14a.88.88,0,0,1-1,0,1.18,1.18,0,0,1,.17-1.88C14.72,15.69,44.11,4.13,62.15,5.49Z"/><path class="cls-1" d="M53.43,21.19a.76.76,0,0,1,.91.36,1.1,1.1,0,0,1,0,1,1.06,1.06,0,0,1-.88.63A164.9,164.9,0,0,0,10.92,35.56a.86.86,0,0,1-1-.14,1.06,1.06,0,0,1-.31-1,1.07,1.07,0,0,1,.64-.86A167.85,167.85,0,0,1,53.43,21.19Z"/><path class="cls-1" d="M17,37.42a4.79,4.79,0,0,1,3.4,3,6.24,6.24,0,0,1,.1,4.71,13.32,13.32,0,0,1-2.31,4.16,4.82,4.82,0,0,1-3.5,2,3,3,0,0,1-2.91-1.39,4.79,4.79,0,0,1-.54-3.45,17.09,17.09,0,0,1,4.17-8,1.48,1.48,0,0,1,.26-.21A1.06,1.06,0,0,1,17,37.42ZM13.64,48.89c.65.58,1.63.19,2.93-1.18A7.81,7.81,0,0,0,19,42.77a3,3,0,0,0-1.9-3.14,13.07,13.07,0,0,0-.88,1.11c-.31.43-.67.95-1.08,1.57a17.72,17.72,0,0,0-1.08,1.85A15.57,15.57,0,0,0,13.28,46a3.88,3.88,0,0,0-.23,1.67A1.85,1.85,0,0,0,13.64,48.89Z"/><path class="cls-1" d="M34.13,43a4.78,4.78,0,0,1,3.39,2.95,6.25,6.25,0,0,1,.11,4.71,13.6,13.6,0,0,1-2.32,4.17,4.82,4.82,0,0,1-3.5,2,2.93,2.93,0,0,1-2.9-1.39A4.76,4.76,0,0,1,28.37,52a17.19,17.19,0,0,1,4.16-8l.26-.2A1.06,1.06,0,0,1,34.13,43Zm-3.4,11.47c.65.58,1.63.18,2.94-1.19a7.82,7.82,0,0,0,2.41-4.94,2.93,2.93,0,0,0-1.9-3.13,12.45,12.45,0,0,0-.87,1.1c-.31.43-.67.95-1.08,1.57a15.52,15.52,0,0,0-1.08,1.85,15.68,15.68,0,0,0-.78,1.83,4.06,4.06,0,0,0-.23,1.67A1.85,1.85,0,0,0,30.73,54.43Z"/><path class="cls-1" d="M22.12,61.42a4.79,4.79,0,0,1,3.4,3,6.24,6.24,0,0,1,.1,4.71,13.32,13.32,0,0,1-2.31,4.16,4.82,4.82,0,0,1-3.5,2,3,3,0,0,1-2.91-1.39,4.78,4.78,0,0,1-.54-3.45,17.09,17.09,0,0,1,4.17-8,1.48,1.48,0,0,1,.26-.21A1.06,1.06,0,0,1,22.12,61.42ZM18.73,72.89c.65.59,1.63.19,2.93-1.18a7.81,7.81,0,0,0,2.42-4.94,3,3,0,0,0-1.9-3.14,13.07,13.07,0,0,0-.88,1.11c-.31.43-.67,1-1.08,1.57a17.72,17.72,0,0,0-1.08,1.85A15.57,15.57,0,0,0,18.37,70a3.88,3.88,0,0,0-.23,1.67A1.85,1.85,0,0,0,18.73,72.89Z"/></g></g></svg>